<?xml version="1.0" standalone="no"?>
<!DOCTYPE svg PUBLIC "-//W3C//DTD SVG 20010904//EN"
 "http://www.w3.org/TR/2001/REC-SVG-20010904/DTD/svg10.dtd">
<svg version="1.0" xmlns="http://www.w3.org/2000/svg"
 width="700.000000pt" height="700.000000pt" viewBox="0 0 700.000000 700.000000"
 preserveAspectRatio="xMidYMid meet">
<metadata>
Created by potrace 1.14, written by Peter Selinger 2001-2017
</metadata>
<g transform="translate(0.000000,700.000000) scale(0.100000,-0.100000)"
fill="#000000" stroke="none">
<path d="M6290 6205 c-85 -29 -162 -55 -170 -58 -8 -3 -37 -13 -65 -21 -41
-13 -61 -29 -107 -84 -32 -37 -72 -83 -90 -103 -18 -20 -58 -64 -88 -99 -30
-35 -67 -77 -83 -94 l-27 -31 -21 27 c-11 14 -32 40 -47 56 -81 87 -194 212
-214 235 -37 42 -176 69 -355 69 l-143 0 -117 -73 c-65 -39 -138 -83 -163 -97
-25 -14 -64 -38 -87 -53 -23 -16 -45 -29 -50 -29 -4 0 -16 -7 -26 -15 -18 -13
-14 -19 60 -96 93 -99 105 -111 253 -270 63 -68 126 -135 140 -150 28 -30 43
-35 120 -44 30 -4 90 -12 132 -19 74 -12 78 -12 105 10 15 13 37 30 48 38 11
9 83 65 160 125 77 60 141 107 143 106 3 -2 -16 -108 -42 -241 -2 -12 -7 -38
-10 -59 -4 -20 -13 -58 -21 -83 -8 -26 -32 -106 -54 -178 -23 -72 -41 -134
-41 -139 0 -4 -41 -89 -91 -189 -51 -99 -131 -259 -179 -355 l-87 -173 -7 46
c-4 25 -8 49 -8 53 -1 5 -11 38 -24 75 -46 132 -119 243 -239 364 -151 154
-338 275 -565 368 -36 15 -74 31 -85 36 -36 16 -210 68 -296 89 -149 35 -209
46 -369 66 -179 22 -593 22 -720 0 -14 -2 -61 -9 -106 -15 -76 -10 -92 -13
-147 -25 -12 -3 -38 -8 -57 -11 -126 -21 -406 -117 -554 -191 -369 -182 -605
-418 -694 -693 -12 -36 -24 -81 -28 -100 -12 -67 -10 -207 3 -271 13 -61 12
-119 -3 -289 -3 -36 -7 -261 -8 -500 l-2 -435 -57 -205 c-52 -188 -96 -317
-123 -363 -8 -14 -45 -26 -145 -47 -99 -21 -162 -42 -242 -78 l-108 -50 -202
-198 c-186 -183 -204 -203 -217 -249 -7 -28 -17 -54 -21 -59 -14 -16 -10 -85
7 -117 18 -35 70 -61 105 -52 13 3 126 69 252 145 l228 138 102 4 c93 4 126
12 202 46 11 5 43 19 70 31 28 11 60 30 72 41 l22 21 90 -87 c49 -47 98 -87
108 -87 44 -4 69 4 263 80 117 47 212 79 222 75 16 -5 18 -20 18 -155 l0 -149
29 0 c17 0 33 -5 37 -11 3 -6 8 -124 11 -262 l5 -252 29 -27 c19 -18 40 -28
60 -28 55 0 59 3 322 303 16 17 43 48 60 67 18 19 84 93 147 165 157 177 198
218 212 212 7 -3 72 -29 143 -57 72 -28 144 -58 160 -65 139 -60 500 -196 522
-197 15 0 70 19 121 41 104 46 120 48 150 23 11 -9 66 -52 121 -95 134 -105
173 -114 230 -54 26 26 36 54 33 88 -1 3 -3 55 -7 115 -3 60 -8 147 -12 194
-7 105 -7 120 6 133 8 8 115 -31 353 -126 l343 -137 150 -19 c83 -11 177 -18
210 -17 212 12 338 22 395 31 14 2 52 7 85 10 33 3 96 12 140 20 44 7 100 16
125 20 25 3 56 8 70 10 29 4 79 11 168 23 57 8 73 6 149 -20 47 -16 95 -30
107 -32 58 -9 120 49 118 109 -1 18 -14 57 -31 86 -16 30 -38 71 -49 91 -15
29 -54 61 -173 140 -85 56 -183 117 -219 136 -118 63 -203 108 -375 200 -93
50 -202 108 -242 129 -80 43 -74 37 -236 277 -96 142 -107 163 -108 205 -1 25
-2 57 -4 71 -1 14 -6 68 -10 120 -3 52 -8 115 -10 140 -2 25 -6 92 -10 150 -7
106 -8 127 -20 280 -6 92 -10 141 -20 295 -4 55 -9 102 -11 104 -2 2 89 186
202 410 157 312 213 432 241 520 19 63 36 120 37 125 1 6 4 16 8 21 4 8 16 50
23 85 0 3 6 21 13 40 6 19 14 51 17 70 3 19 10 58 15 85 5 28 11 64 14 80 15
96 26 148 31 153 3 3 12 -3 19 -14 20 -28 94 -127 103 -139 5 -5 35 -46 68
-90 117 -160 215 -273 240 -277 17 -4 51 11 117 50 51 31 98 60 103 64 6 5 75
50 155 100 80 50 174 109 210 132 36 23 113 73 173 111 59 37 107 71 107 75 0
8 -112 113 -319 300 -9 8 -59 98 -110 200 -51 102 -96 188 -99 191 -4 3 -77
-17 -162 -46z"/>
</g>
</svg>
